<svg xmlns="http://www.w3.org/2000/svg" viewBox="0 0 16 16"><defs><style>.cls-1{fill:#6e6e6e}.cls-2{fill:#f8f8f8}.cls-3{fill:#6db5e3}.cls-4{fill:none}.cls-5{fill:#d3eaf9}.cls-6{fill:#9bc29c}</style></defs><title>addin16</title><g id="Icons"><path class="cls-1" d="M16 16H3V0h9.4L16 3.6V16z"/><path class="cls-2" d="M12.31 1H4v14h11V3.69L12.31 1z"/><path class="cls-1" d="M12 4V1h-1v4h5V4h-4z"/><path class="cls-3" d="M8 7h3v1H8z"/><path class="cls-2" d="M4 0h1v1H4zM3 6h1v1H3z"/><path class="cls-1" d="M6 2H4V0H2v2H0v2h2v2h2V4h2V2z"/><path class="cls-3" d="M13.507 7.5l-1.5 1.5h.988l1.5-1.5-1.5-1.5h-.987l1.5 1.5zM5.497 7.498L6.997 6h-.99l-1.5 1.498L6.006 9h.99l-1.5-1.502zM8 11h3v1H8zM13.507 11.5l-1.5 1.5h.988l1.5-1.5-1.5-1.5h-.987l1.5 1.5zM5.497 11.498L6.997 10h-.99l-1.5 1.498L6.006 13h.99l-1.5-1.502z"/><path class="cls-4" d="M0 0h16v16H0z"/><circle class="cls-1" cx="4" cy="12" r="4"/><circle class="cls-5" cx="4" cy="12" r="3"/><path class="cls-6" d="M1.96 14.194a.13.13 0 0 0 .043-.01l.04-.032a.316.316 0 0 0 .056-.087.336.336 0 0 0 .028-.118.7.7 0 0 0 0-.07c0-.02 0-.024.02-.04a.766.766 0 0 1 .074-.045.232.232 0 0 0 .104-.127.224.224 0 0 0-.015-.168l-.026-.04a1.355 1.355 0 0 0-.35-.278l-.186-.122c-.047-.032-.068-.05-.073-.063a.383.383 0 0 1 .007-.066.593.593 0 0 0-.02-.276 2.01 2.01 0 0 0-.12-.285l-.02-.042c-.035-.07-.07-.14-.098-.212a.753.753 0 0 0-.067-.135l-.065-.1a.265.265 0 0 1-.057-.14.376.376 0 0 0-.063-.188.198.198 0 0 0-.115-.042c-.005.002-.01.01-.015.012a2.953 2.953 0 0 0 .917 2.672zM1.502 10.34a.132.132 0 0 0 .023.048.12.12 0 0 0 .065.023.146.146 0 0 0 .085-.03 1.24 1.24 0 0 0 .067-.044.428.428 0 0 0 .086-.074.238.238 0 0 1 .16-.098h.006a2.477 2.477 0 0 1 .273.012.258.258 0 0 0 .247-.19c.013-.036.02-.05.025-.05v.003a.335.335 0 0 1 .08.02.487.487 0 0 0 .07.016l.04.004a.212.212 0 0 0 .163-.074c.06-.075.16-.212.226-.31a.43.43 0 0 0 .074-.213.226.226 0 0 0-.133-.217c-.007-.004-.015-.003-.023-.005a3.005 3.005 0 0 0-1.535 1.18zM7 12a2.995 2.995 0 0 0-1.39-2.528.088.088 0 0 0-.058.08l-.158-.048a.34.34 0 0 0-.097-.016.44.44 0 0 0-.29.166.506.506 0 0 0-.038.067l-.056.12a.375.375 0 0 1-.028.048.338.338 0 0 0-.033.054.237.237 0 0 0 .053.254 1.6 1.6 0 0 0 .142.125l-.002.003a.498.498 0 0 0-.066.054l-.038.036a.224.224 0 0 0-.085-.122.22.22 0 0 0-.008-.035.32.32 0 0 0-.096-.143.212.212 0 0 0-.153-.05l-.023.002a.21.21 0 0 0-.15.115l-.02.045a.213.213 0 0 0 .114.266.22.22 0 0 0 .086.163c.01.006.017.013.026.018a.234.234 0 0 0-.013.225l.01.028h-.004a.55.55 0 0 1-.09-.02.487.487 0 0 0-.05-.006.215.215 0 0 0-.2.128.434.434 0 0 0-.026.102 1.35 1.35 0 0 0-.01.195.218.218 0 0 0 .06.16.53.53 0 0 0-.043.048l-.022.027a.285.285 0 0 1-.045.036.467.467 0 0 0-.202.234l-.035.043-.053.02a.762.762 0 0 0-.35.35.678.678 0 0 0-.06.15.49.49 0 0 0-.012.12.22.22 0 0 1-.054.148.21.21 0 0 0-.067.113.355.355 0 0 0-.004.098.392.392 0 0 0 .057.167.312.312 0 0 0 .06.068l.053.05a.225.225 0 0 1 .063.086.576.576 0 0 0 .176.283.51.51 0 0 0 .323.138 1.028 1.028 0 0 0 .123-.01l.164-.024a1.238 1.238 0 0 1 .163-.013.372.372 0 0 1 .105.012 1.208 1.208 0 0 0 .153.038.395.395 0 0 1 .057.014c.03.007.04.015.04.023a.12.12 0 0 1-.003.09.464.464 0 0 0-.018.055.222.222 0 0 0 .068.226.105.105 0 0 1 .042.073.252.252 0 0 1-.064.23.51.51 0 0 0-.16.275.337.337 0 0 0-.004.1.866.866 0 0 0 .01.075.126.126 0 0 0 .04.062A3 3 0 0 0 7 12zm-1.586-1.863v-.015c.014.01.03.02.042.03a.165.165 0 0 1-.01.138l-.022.034s-.012.007-.065.007h-.007a.242.242 0 0 0 .06-.193zm.665 1.618a.238.238 0 0 1-.047-.02.24.24 0 0 0-.08-.028h-.007a.212.212 0 0 0-.052-.01.21.21 0 0 0-.198.146.532.532 0 0 1-.266-.16.226.226 0 0 0-.177-.235.812.812 0 0 0-.182-.018 1.842 1.842 0 0 0-.212.012.406.406 0 0 0-.047.008.21.21 0 0 0 .02-.03c.01-.018.02-.034.014-.04a.253.253 0 0 0 .036-.054.32.32 0 0 0 .12-.108l-.043-.08.076.038a.117.117 0 0 1 .07-.022.168.168 0 0 1 .027.002.727.727 0 0 1 .067.05.216.216 0 0 0 .13.04.183.183 0 0 0 .092-.02.216.216 0 0 0 .064-.045l.018.017a.986.986 0 0 1 .08.082.45.45 0 0 1 .025.03.323.323 0 0 0 .05.132.2.2 0 0 0 .187.093.215.215 0 0 0 .11-.037.25.25 0 0 0 .208.084.28.28 0 0 1 .08.013.494.494 0 0 1 .034.108 1.34 1.34 0 0 0-.116.042.137.137 0 0 1-.058.01zM3.784 9.01a.198.198 0 0 0-.038.045 1.123 1.123 0 0 0-.05.08.337.337 0 0 1-.048.04l-.046.034a.79.79 0 0 0-.123.102.426.426 0 0 0-.155.284.21.21 0 0 0 .105.19.21.21 0 0 0 .208 0 .948.948 0 0 1 .302-.12l.2.01a.513.513 0 0 0 .072-.005.238.238 0 0 0 .143-.077l.042-.055.037-.06a.506.506 0 0 1 .07-.092.85.85 0 0 1 .073-.06.204.204 0 0 0 .083-.153.183.183 0 0 0-.03-.106A3.01 3.01 0 0 0 4 9c-.073 0-.145.006-.216.01z"/></g></svg>