<svg id="Icons" xmlns="http://www.w3.org/2000/svg" viewBox="0 0 16 16"><defs><style>.cls-1{fill:none}.cls-2{fill:#6d6e71}.cls-3{fill:url(#linear-gradient)}.cls-4{fill:#f8f8f8}.cls-5{fill:#939598}.cls-6{fill:#a7a9ac}</style><linearGradient id="linear-gradient" x1="3.868" y1="1.344" x2="12.132" y2="15.656" gradientUnits="userSpaceOnUse"><stop offset="0" stop-color="#8c8c8c"/><stop offset="1" stop-color="#404040"/></linearGradient></defs><title>appsGray16</title><path class="cls-1" d="M0 0h16v16H0z"/><rect class="cls-2" y="2" width="16" height="13" rx="1" ry="1"/><path class="cls-3" d="M15 14H1V3h14v11z"/><path class="cls-4" d="M15 14H1V5h14v9z"/><path class="cls-5" d="M1 3h14v2H1zM4 5h1v9H4z"/><path class="cls-1" d="M6 6h10v10H6z"/><path class="cls-4" d="M5 5h10v9H5z"/><path class="cls-6" d="M8.308 13.968a1.398 1.398 0 0 1 .116-.493 1.1 1.1 0 0 0 .07-.367c0-.36-.685-.257-.794-.473-.266-.533.455-.67.455-1.097 0-.104-.053-.32-.218-.337-.232-.02-.29.102-.524.102a.265.265 0 0 1-.287-.236c0-.253.203-.37.203-.626 0-.164-.068-.255-.068-.42a.405.405 0 0 1 .387-.42c.21 0 .303.172.405.35a.42.42 0 0 0 .404.203c.32 0 .522-.4.522-.64a.31.31 0 0 1 .288-.32c.227 0 .312.236.54.236.375 0 .362-.496.692-.677.405-.218.287-.69.236-.944-.02-.113.19-.33.304-.323.473.035.27-.352.27-.54a.312.312 0 0 1 .015-.093c.073-.217.39-.287.39-.547 0-.185-.153-.27-.153-.455 0-.275.407-.522.833-.723.097-.048.15-.034.18-.13H5v9h3.316c-.005-.056-.008-.01-.008-.032zM15 14v-3.036c-.208.057-.362.505-.43.505h-.415a.965.965 0 0 1-.594-.285c-.172-.15-.168-.513-.404-.513-.316 0-.34.444-.66.444-.142 0-.248-.116-.39-.116-.127 0-.293.066-.293.192v.33c0 .278-.332.333-.332.612 0 .113.12.155.12.27 0 .38-.584.33-.584.708 0 .126.14.2.14.32v.02c0 .14-.202.3-.273.548z"/></svg>