<svg xmlns="http://www.w3.org/2000/svg" viewBox="0 0 16 16"><defs><style>.cls-1{fill:#9182bd}.cls-2{fill:none}.cls-3{fill:#c5bddd}.cls-4{fill:#f8f8f8}.cls-5{fill:#6e6e6e}</style></defs><title>datastorecollection16</title><g id="Icons"><path class="cls-1" d="M15 4a.982.982 0 0 0-.385-.77L13 0H3L1.385 3.23A.982.982 0 0 0 1 4v3a.972.972 0 0 0 .153.5A.972.972 0 0 0 1 8v3a.972.972 0 0 0 .153.5A.972.972 0 0 0 1 12v3a1 1 0 0 0 1 1h12a1 1 0 0 0 1-1v-3a.972.972 0 0 0-.153-.5A.972.972 0 0 0 15 11V8a.972.972 0 0 0-.153-.5A.972.972 0 0 0 15 7z"/><path class="cls-2" d="M0 0h16v16H0z"/><path class="cls-3" d="M2.618 3l1-2h8.764l1 2H2.618z"/><path class="cls-4" d="M2 4h12v3H2zM2 8h12v3H2zM2 12h12v3H2z"/><rect class="cls-5" x="3" y="5" width="1" height="1" rx=".355" ry=".355"/><rect class="cls-5" x="3" y="9" width="1" height="1" rx=".355" ry=".355"/><rect class="cls-5" x="3" y="13" width="1" height="1" rx=".355" ry=".355"/><rect class="cls-5" x="7" y="5" width="6" height="1" rx=".5" ry=".5"/><rect class="cls-5" x="7" y="9" width="6" height="1" rx=".5" ry=".5"/><rect class="cls-5" x="7" y="13" width="6" height="1" rx=".5" ry=".5"/></g></svg>