<svg xmlns="http://www.w3.org/2000/svg" viewBox="0 0 16 16"><defs><style>.cls-1{fill:#6e6e6e}.cls-2{fill:#efefef}.cls-3{fill:#9bc29c}.cls-4{fill:#57a6d9}.cls-5{fill:#c96b4b}.cls-6{fill:#f8f8f8}.cls-7{fill:#a67a47}.cls-8{fill:none}</style></defs><title>filesstylxfile16</title><g id="Icons"><path class="cls-1" d="M7.65 13a8.756 8.756 0 0 1-6.126-2.216A4.386 4.386 0 0 1 .15 7.646c.01-3.035 3.33-5.46 7.72-5.644l.224-.005a2.714 2.714 0 0 1 2.077.76 2.963 2.963 0 0 1 .594 2.347l.41.048c1.81.216 3.682.44 4.357 1.736a2.74 2.74 0 0 1-.106 2.742c-1.247 2.106-4.806 3.308-7.52 3.367z"/><path class="cls-2" d="M14.645 7.35C14.1 6.3 11.537 6.257 9.957 6c-.764-.125.98-3.125-2.044-3C4.19 3.157 1.16 5.166 1.15 7.65s3.005 4.43 6.73 4.347 7.956-2.36 6.765-4.648z"/><ellipse class="cls-3" cx="7" cy="5" rx="1.016" ry=".984" transform="rotate(-44.992 7 5)"/><ellipse class="cls-4" cx="4" cy="6" rx="1.016" ry=".984" transform="rotate(-44.992 4 6)"/><ellipse class="cls-5" cx="5" cy="9" rx="1.016" ry=".984" transform="rotate(-44.992 5 9)"/><path class="cls-6" d="M11.972 5.253l-1.23.727a.955.955 0 0 0-.2.158l-3.868 3.27a1.005 1.005 0 0 0-.294.42 2.258 2.258 0 0 0-2.363 2.215.75.75 0 0 1-.07.27A10.14 10.14 0 0 0 7.652 13l.253-.003c.3-.007.614-.032.93-.067a2.473 2.473 0 0 0 .048-.267 1.008 1.008 0 0 0 .377-.2L13.2 9.12a.914.914 0 0 0 .09-.085l2.127-2.31c-.63-.966-1.992-1.277-3.445-1.472z"/><path class="cls-7" d="M7.892 12.383l-1.325-1.556s-1.52-.09-1.55 1.238c-.03 1.313-1.624 2.137-1.624 2.137a3.26 3.26 0 0 0 2.95.11c1.646-.732 1.55-1.93 1.55-1.93z"/><path class="cls-1" d="M14.882 5.177a.52.52 0 0 0-.732-.05l-2.9 1.715.003.003-3.934 3.328L8.61 11.7l3.944-3.343L14.81 5.91a.522.522 0 0 0 .072-.733z"/><path class="cls-8" d="M0 0h16v16H0z"/></g></svg>