<svg id="Icons" xmlns="http://www.w3.org/2000/svg" viewBox="0 0 16 16"><defs><style>.cls-1{fill:none}.cls-2{fill:#e5d255}.cls-3{fill:#f0e498}.cls-4{fill:#e89d48}.cls-5{fill:#c7552e}.cls-6{fill:#f8f8f8}.cls-7{fill:#5b945a}.cls-8{fill:#a67a47}</style></defs><title>elevationlayer16</title><path class="cls-1" d="M0 0h16v16H0z"/><path class="cls-2" d="M16 14.4s-3.2-1.6-8 0-8 0-8 0L2.133 1.6A9.762 9.762 0 0 0 8 1.6a9.762 9.762 0 0 1 5.867 0z"/><path class="cls-3" d="M15.104 9.02A.94.94 0 0 0 15 9h-.454L10.34 2.46A1 1 0 0 0 9.5 2h-.016a1.002 1.002 0 0 0-.842.485l-2.34 3.903-1.095-1.095A1 1 0 0 0 4.5 5a.886.886 0 0 0-.114.007 1 1 0 0 0-.735.463L1.446 9H1a.94.94 0 0 0-.104.02l-.463 2.782A.975.975 0 0 0 1 12h14a.975.975 0 0 0 .567-.198z"/><path class="cls-4" d="M14 10L9.5 3l-3 5-2-2L2 10h12z"/><path class="cls-5" d="M11.428 6H7.7L6.5 8h6.214l-1.286-2zM6.5 8l-2-2-1.25 2H6.5z"/><path class="cls-6" d="M11.428 6L9.5 3 7.7 6h3.728z"/><path class="cls-7" d="M1 10h14v1H1z"/><path class="cls-8" d="M9.5 3l-3 5h.36L9.5 3.6l4.114 6.4H14L9.5 3zM2 10h.375L4.5 6.6 5.9 8h.6l-2-2L2 10z"/></svg>