<svg id="Icons" xmlns="http://www.w3.org/2000/svg" viewBox="0 0 16 16"><defs><style>.cls-1{fill:none}.cls-2{fill:#e5d255}.cls-3{fill:#f4eec8}.cls-4{fill:#c7552e}.cls-5{fill:#e5a894}.cls-6{fill:#c96b4b}.cls-7{fill:#f8f8f8}.cls-8{fill:#6d6e71}.cls-9{fill:#f3f4f4}.cls-10{fill:#e0e0e0}</style></defs><title>layerFeaturesHosted_16</title><path class="cls-1" d="M0 0h16v16H0z"/><path class="cls-2" d="M16 14.4s-3.2-1.6-8 0-8 0-8 0L2.133 1.6A9.762 9.762 0 0 0 8 1.6a9.762 9.762 0 0 1 5.867 0z"/><path class="cls-3" d="M12 3a4.107 4.107 0 0 0-.436-1.836A7.926 7.926 0 0 0 8 1.6a8.15 8.15 0 0 1-3.872.405A4.286 4.286 0 0 0 4 3v4a1 1 0 0 0 .293.707l3 3a1 1 0 0 0 1.414 0l3-3A1 1 0 0 0 12 7z"/><path class="cls-4" d="M11 3a2.894 2.894 0 0 0-3-3 2.894 2.894 0 0 0-3 3v4l3 3 3-3z"/><path class="cls-5" d="M6 6.586V3a1.893 1.893 0 0 1 2-2 1.893 1.893 0 0 1 2 2v3.586l-2 2z"/><path class="cls-6" d="M8 2v5.172l1-1V3a.902.902 0 0 0-1-1z"/><circle class="cls-7" cx="8" cy="3" r="1"/><circle class="cls-7" cx="8" cy="3" r="1"/><path class="cls-8" d="M16 10.854H9v3.29C9 15.17 10.016 16 12.5 16s3.5-.83 3.5-1.855z"/><path class="cls-9" d="M10 11.813v2.613a3.005 3.005 0 0 0 2.5.78 3.05 3.05 0 0 0 2.5-.77v-2.623z"/><path class="cls-10" d="M13 15.193a2.435 2.435 0 0 0 2-.757v-2.622h-2z"/><path class="cls-8" d="M16 10.854c0 1.024-1.016 2.024-3.5 2.024s-3.5-1-3.5-2.024S10.016 9 12.5 9s3.5.83 3.5 1.854z"/><path class="cls-9" d="M12.5 11.878c-1.718 0-2.5-.53-2.5-1.024 0-.503 1.027-.854 2.5-.854s2.5.35 2.5.854c0 .493-.782 1.024-2.5 1.024z"/></svg>