<svg id="Icons" xmlns="http://www.w3.org/2000/svg" viewBox="0 0 16 16"><defs><style>.cls-1{fill:none}.cls-2{fill:#e5d255}.cls-3{fill:#f8f8f8}.cls-4{fill:#c7552e}.cls-5{fill:#e5a894}.cls-6{fill:#c96b4b}</style></defs><title>layerFeatures_16</title><path class="cls-1" d="M0 0h16v16H0z"/><path class="cls-2" d="M16 14.4s-3.2-1.6-8 0-8 0-8 0L2.133 1.6A9.762 9.762 0 0 0 8 1.6a9.762 9.762 0 0 1 5.867 0z"/><path class="cls-3" d="M12 3a4.103 4.103 0 0 0-.436-1.837A7.914 7.914 0 0 0 8 1.6a8.162 8.162 0 0 1-3.872.405A4.283 4.283 0 0 0 4 3v4a1 1 0 0 0 .293.707l3 3a1 1 0 0 0 1.414 0l3-3A1 1 0 0 0 12 7z"/><path class="cls-4" d="M11 3a2.893 2.893 0 0 0-3-3 2.893 2.893 0 0 0-3 3v4l3 3 3-3z"/><path class="cls-5" d="M6 6.586V3a1.893 1.893 0 0 1 2-2 1.893 1.893 0 0 1 2 2v3.586l-2 2z"/><path class="cls-6" d="M8 2v5.172l1-1V3a.902.902 0 0 0-1-1z"/><circle class="cls-3" cx="8" cy="3" r="1.25"/><circle class="cls-3" cx="8" cy="3" r="1.25"/></svg>