<svg id="Icons" xmlns="http://www.w3.org/2000/svg" viewBox="0 0 16 16"><defs><style>.cls-1{fill:#a67a47}.cls-2{fill:#e5d255}.cls-3{fill:#f4eec8}.cls-4{fill:#5b945a}.cls-5{fill:#9bc29c}.cls-6{fill:none}</style></defs><title>initiative16</title><path class="cls-1" d="M10 10H9V0h1z"/><path class="cls-2" d="M6.497 1A.497.497 0 0 0 6 1.497.503.503 0 0 1 5.497 2H3v4h2.503A.497.497 0 0 0 6 5.503v-.006A.497.497 0 0 1 6.497 5H9V1z"/><path class="cls-3" d="M4 5V3h1.503a1.5 1.5 0 0 0 1.412-1H8v2H6.497a1.5 1.5 0 0 0-1.412 1z"/><path class="cls-2" d="M6.497 5H7V1h-.503A.497.497 0 0 0 6 1.497v4A.497.497 0 0 1 6.497 5z"/><path class="cls-4" d="M15.175 16L9.49 6.786 6.893 10.94 5.68 9.684.73 16h14.445z"/><path class="cls-5" d="M2.783 15h10.6L9.485 8.68l-2.062 3.3.873 1.857-2.54-2.633L2.784 15z"/><path class="cls-6" d="M0 0h16v16H0z"/></svg>