<svg id="Icons" xmlns="http://www.w3.org/2000/svg" viewBox="0 0 16 16"><defs><style>.cls-1{fill:none}.cls-2{fill:#e5d255}.cls-3{fill:#f4eec8}.cls-4{fill:#6d6e71}.cls-5{fill:#bddbee}.cls-6{fill:#6db5e3}.cls-7{fill:#d3eaf9}.cls-8{fill:#9bc29c}</style></defs><title>layerImagery_16</title><path class="cls-1" d="M0 0h16v16H0z"/><path class="cls-2" d="M16 14.4s-3.2-1.6-8 0-8 0-8 0L2.133 1.6A9.762 9.762 0 0 0 8 1.6a9.762 9.762 0 0 1 5.867 0z"/><path class="cls-3" d="M3.117 13a1 1 0 0 1-.995-1.097l.778-8A1 1 0 0 1 3.895 3h8.21a1 1 0 0 1 .995.903l.778 8A1 1 0 0 1 12.883 13z"/><path class="cls-4" d="M3.117 12l.778-8h8.21l.778 8H3.117z"/><path class="cls-4" d="M12 7V6h-2V5H9v1H7V5H6v1H4v1h2v1H4v1h2v2h1V9h2v2h1V9h2V8h-2V7zM9 8H7V7h2z"/><path class="cls-5" d="M7 5h2v1H7z"/><path class="cls-3" d="M6 6V5H4.803l-.098 1H6z"/><path class="cls-6" d="M7 7h2v1H7z"/><path class="cls-3" d="M11.392 7H10v1h1.49l-.098-1z"/><path class="cls-7" d="M11.295 6l-.098-1H10v1h1.295z"/><path class="cls-8" d="M7 9h2v2H7z"/><path class="cls-7" d="M4.51 8H6V7H4.608L4.51 8z"/><path class="cls-8" d="M10 9v2h1.78l-.193-2H10z"/><path class="cls-6" d="M4.413 9l-.194 2H6V9H4.413z"/></svg>