<svg id="Icons" xmlns="http://www.w3.org/2000/svg" viewBox="0 0 16 16"><defs><style>.cls-1{fill:#6e6e6e}.cls-2{fill:none}.cls-3{fill:#3b8fc4}.cls-4{fill:#d3eaf9}</style></defs><title>insightsmodel16</title><path class="cls-1" d="M7 4.066h1v3H7zM2 8.066h1v3H2zM12 8.066h1v3h-1z"/><path class="cls-1" d="M2 8h11v1H2z"/><path class="cls-2" d="M0 0h16v16H0z"/><path class="cls-3" d="M0 10h5v5H0z"/><path class="cls-4" d="M1 11h3v3H1z"/><path class="cls-3" d="M10 10h5v5h-5z"/><path class="cls-4" d="M11 11h3v3h-3z"/><path class="cls-3" d="M10 2.566a2.5 2.5 0 0 1-2.5 2.5 2.5 2.5 0 0 1-2.5-2.5 2.5 2.5 0 0 1 2.5-2.5 2.5 2.5 0 0 1 2.5 2.5z"/><path class="cls-4" d="M7.47 4.268a1.7 1.7 0 1 1 1.7-1.702 1.704 1.704 0 0 1-1.7 1.702z"/><path class="cls-3" d="M4.682 8.566l2.8-2.8 2.8 2.8-2.8 2.8z"/><path class="cls-4" d="M5.97 8.567l1.5-1.5 1.5 1.5-1.5 1.5z"/></svg>