<svg id="Icons" xmlns="http://www.w3.org/2000/svg" viewBox="0 0 16 16"><defs><style>.cls-1{fill:none}.cls-2{fill:#6d6e71}.cls-3{fill:#f8f8f8}.cls-4{fill:#d76428}</style></defs><title>insightspage16</title><path class="cls-1" d="M0 0h16v16H0z"/><path class="cls-2" d="M16 16H3V0h9.4L16 3.6V16z"/><path class="cls-3" d="M12.31 1H4v14h11V3.69L12.31 1z"/><path class="cls-2" d="M11 1h1v4h-1z"/><path class="cls-2" d="M11 4h5v1h-5z"/><path class="cls-3" d="M3 7h8v9H3z"/><path class="cls-4" d="M9.76 13.1C8.29 13.1 7.324 12 5 12a10.33 10.33 0 0 0-2 .155V10h5v.516A3.823 3.823 0 0 0 10 11c1.03-.025 1.993-.29 2-1.414V6.2a.2.2 0 0 0-.2-.2H6.2a.2.2 0 0 0-.2.2V8h1V7h4v2.216a.782.782 0 0 1-.782.783H9v-.746A.255.255 0 0 0 8.746 9H2.254A.255.255 0 0 0 2 9.254v3.18a3.498 3.498 0 0 0-1.337.927 11.693 11.693 0 0 1 4.444-.486C6.773 12.944 7.84 14 9.73 14c2.91 0 3.27-1.77 3.27-1.77a6.23 6.23 0 0 1-3.24.87zM9 15v.746a.255.255 0 0 1-.254.254H2.254A.255.255 0 0 1 2 15.746v-1.292a3.115 3.115 0 0 1 1-.15V15h6z"/></svg>