<svg id="Icons" xmlns="http://www.w3.org/2000/svg" viewBox="0 0 16 16"><defs><style>.cls-1{fill:none}.cls-2{fill:#e5d255}.cls-3{fill:#6d6e71}.cls-4{fill:#d3eaf9}.cls-5{fill:#6db5e3}.cls-6{fill:#5b945a}.cls-7{fill:#ddeedb}.cls-8{fill:#e89d48}</style></defs><title>layerMapImage_16</title><path class="cls-1" d="M0 0h16v16H0z"/><path class="cls-2" d="M16 14.4s-3.2-1.6-8 0-8 0-8 0L2.133 1.6A9.762 9.762 0 0 0 8 1.6a9.762 9.762 0 0 1 5.867 0z"/><path class="cls-3" d="M3 3h10l1 10H2L3 3z"/><path class="cls-4" d="M3.117 12l.78-8h8.208l.778 8H3.117z"/><path class="cls-5" d="M12.83 11.593c-.08.004-.164.02-.244.02l-.212.005c-.144.005-.317.01-.51.01a5.22 5.22 0 0 1-2.073-.36 5.886 5.886 0 0 1-1.692-1.16 4.236 4.236 0 0 1-2.248-.68 3.903 3.903 0 0 1-.828-.8l-.125-.147c-.138.08-.39.26-.568.386l-.097.07c-.172.12-.742.4-.855.456l-.007.003-.053.552a1.896 1.896 0 0 0 .285-.1 8.627 8.627 0 0 0 .924-.5L4.8 9.15a3.975 3.975 0 0 0 .77.698 4.715 4.715 0 0 0 2.32.756 6.146 6.146 0 0 0 1.702 1.128 4.63 4.63 0 0 0 .885.268h2.392z"/><path class="cls-6" d="M13 3H3l-.497 4.973c.033.003.065.014.1.014a1 1 0 0 0 .44-.102c.375-.185.663-.34.705-.37.57-.405 1.047-.773 1.51-.644s.66.733 1.224 1.116a3.46 3.46 0 0 0 1.988.51h.097A5.496 5.496 0 0 0 10.22 9.72a5.797 5.797 0 0 0 2.37.258 3.91 3.91 0 0 0 1.193-.2z"/><path class="cls-7" d="M12.105 4H3.896L3.63 6.743a2.553 2.553 0 0 1 1.433-.6 1.395 1.395 0 0 1 .382.054 1.944 1.944 0 0 1 .974.75 2.29 2.29 0 0 0 .45.457 2.898 2.898 0 0 0 1.697.393.702.702 0 0 1 .476.186l.098.097a4.592 4.592 0 0 0 1.354.995 3.534 3.534 0 0 0 1.382.22c.166 0 .317-.005.444-.01l.27-.007.028-.002z"/><path class="cls-8" d="M8 5h1v1H8zM10 6h1v1h-1z"/></svg>