<svg id="Icons" xmlns="http://www.w3.org/2000/svg" viewBox="0 0 16 16"><defs><style>.cls-1{fill:none}.cls-2{fill:#e5d255}.cls-3{fill:#6d6e71}.cls-4{fill:#d3eaf9}.cls-5{fill:#9bc29c}.cls-6{fill:#f4eec8}</style></defs><title>layerTiles16</title><path class="cls-1" d="M0 0h16v16H0z"/><path class="cls-2" d="M16 14.4s-3.2-1.6-8 0-8 0-8 0L2.133 1.6A9.762 9.762 0 0 0 8 1.6a9.762 9.762 0 0 1 5.867 0z"/><path class="cls-3" d="M8 4h5v5H8z"/><path class="cls-4" d="M9 5h3v3H9z"/><path class="cls-3" d="M4 8h5v5H4z"/><path class="cls-4" d="M5 9h3v3H5z"/><path class="cls-3" d="M8 8h5v5H8z"/><path class="cls-5" d="M9 9h3v3H9zM8 10s-1 .313-1 1c0 1-1 .16-1 1h2z"/><path class="cls-6" d="M4 4h4v4H4z"/><path class="cls-3" d="M2 2h5v5H2z"/><path class="cls-4" d="M3 3h3v3H3z"/><path class="cls-5" d="M6 3H3v2.842a1.046 1.046 0 0 0 .648-.2c.407-.328.36-.93.684-1.208.222-.19.576.07.76-.094.15-.133.195-.557.232-.59.133-.12.274-.494.438-.643A.526.526 0 0 1 6 3.017z"/></svg>