<svg xmlns="http://www.w3.org/2000/svg" viewBox="0 0 16 16"><defs><style>.cls-1{fill:none}.cls-2{fill:#e5d255}.cls-3{fill:#f4eec8}.cls-4{fill:#595959}.cls-5{fill:#bddbee}.cls-6{fill:#f0e498}</style></defs><title>markup16</title><g id="Icons"><path class="cls-1" d="M0 0h16v16H0z"/><path class="cls-2" d="M16 14.4s-3.2-1.6-8 0-8 0-8 0L2.133 1.6A9.762 9.762 0 0 0 8 1.6a9.762 9.762 0 0 1 5.867 0z"/><rect class="cls-3" x="8" y="6" width="6" height="6" rx="1" ry="1"/><path class="cls-4" d="M9 7h4v4H9z"/><path class="cls-5" d="M10 8h2v2h-2z"/><rect class="cls-3" x="3" y="3" width="10" height="3" rx="1" ry="1"/><path class="cls-4" d="M4 4h8v1H4z"/><circle class="cls-3" cx="5.5" cy="9.5" r="3.5"/><circle class="cls-4" cx="5.5" cy="9.5" r="2.5"/><circle class="cls-6" cx="5.5" cy="9.5" r="1.75"/></g></svg>