<svg id="Icons" xmlns="http://www.w3.org/2000/svg" viewBox="0 0 16 16"><defs><style>.cls-1{fill:#6e6e6e}.cls-2{fill:#3b8fc4}.cls-3{fill:#f4f4f4}.cls-4{fill:#e0e0e0}.cls-5{fill:none}</style></defs><title>relationaldatabaseconnection16</title><path class="cls-1" d="M7 11v3H2v2h12.02v-2H9v-3H7z"/><path class="cls-2" d="M14 2.498H2V9.5C2 10.88 4.686 12 8 12s6-1.12 6-2.5v-.002z"/><path class="cls-3" d="M8 11c-3.28 0-5-1.115-5-1.5V3.498h10v6C13 9.885 11.28 11 8 11z"/><path class="cls-4" d="M10 10.842c1.97-.32 3-1.047 3-1.344v-6h-3z"/><ellipse class="cls-2" cx="8" cy="2.5" rx="6" ry="2.5"/><ellipse class="cls-3" cx="8" cy="2.5" rx="5" ry="1.5"/><path class="cls-5" d="M0 0h16v16H0z"/></svg>