<svg xmlns="http://www.w3.org/2000/svg" viewBox="0 0 16 16"><defs><style>.cls-1{fill:none}.cls-2{fill:#6e6e6e}.cls-3{fill:#f8f8f8}.cls-4{fill:#828282}.cls-5{fill:#57a6d9}.cls-6{fill:#6db5e3}.cls-7{fill:#bddbee}</style></defs><title>reporttemplate16</title><g id="Icons"><path class="cls-1" d="M0 0h16v16H0z"/><path class="cls-2" d="M15 16H2V0h9.4L15 3.6V16z"/><path class="cls-3" d="M11.31 1H3v14h11V3.69L11.31 1z"/><path class="cls-4" d="M4 6h9v8H4z"/><path class="cls-2" d="M11 4V1h-1v4h5V4h-4z"/><path class="cls-5" d="M5 6h7v1H5z"/><path class="cls-4" d="M4 2h5v1H4zM4 4h5v1H4z"/><path class="cls-3" d="M5 7h7v6H5z"/><path class="cls-6" d="M5 7h7v1H5z"/><path class="cls-7" d="M5 11h7v1H5zM5 9h7v1H5z"/></g></svg>