<svg xmlns="http://www.w3.org/2000/svg" viewBox="0 0 16 16"><defs><style>.cls-1{fill:none}.cls-2{fill:#6e6e6e}.cls-3{fill:#e5d255}.cls-4{fill:#f0e498}.cls-5{fill:#595959}</style></defs><title>routelayer16</title><g id="Icons"><path class="cls-1" d="M0 0h16v16H0z"/><path class="cls-1" d="M0 0h16v16H0z"/><path class="cls-1" d="M0 0h16v16H0z"/><rect class="cls-2" x="2.042" y="2.042" width="11.917" height="11.917" rx="1" ry="1" transform="rotate(45 8 8)"/><rect class="cls-3" x="3.041" y="3.041" width="9.917" height="9.917" rx="1" ry="1" transform="rotate(134.998 8 8)"/><path class="cls-4" d="M5 12a1 1 0 0 1-1-1V7a2.002 2.002 0 0 1 2-2h1V4a1 1 0 0 1 1.53-.848l4 2.5a1 1 0 0 1 0 1.696l-4 2.5A.995.995 0 0 1 8 10a1 1 0 0 1-1-1v2a1 1 0 0 1-1 1z"/><path class="cls-5" d="M12 6.5L8 4v2H6a1 1 0 0 0-1 1v4h1V8a1 1 0 0 1 1-1h1v2z"/></g></svg>