<svg id="Icons" xmlns="http://www.w3.org/2000/svg" viewBox="0 0 16 16"><defs><style>.cls-1{fill:none}.cls-2{fill:#e5d255}.cls-3{fill:#f4eec8}.cls-4,.cls-6{fill:#6d6e71}.cls-5{fill:#f8f8f8}.cls-5,.cls-6{fill-rule:evenodd}.cls-7{fill:#68aa67}.cls-8{fill:#ddeedb}</style></defs><title>sceneweblayerline16</title><path class="cls-1" d="M0 0h16v16H0z"/><path class="cls-2" d="M16 14.4s-3.2-1.6-8 0-8 0-8 0L2.133 1.6A9.762 9.762 0 0 0 8 1.6a9.762 9.762 0 0 1 5.867 0z"/><rect class="cls-3" x="6" y="3" width="3" height="10" rx="1" ry="1"/><rect class="cls-3" x="7" y="5" width="6" height="3" rx="1" ry="1"/><rect class="cls-3" x="3" y="8" width="5" height="3" rx="1" ry="1"/><path class="cls-4" d="M7 4h1v8H7zM8 6h4v1H8zM4 9h3v1H4z"/><path class="cls-5" d="M13.867 1.6A11 11 0 0 0 10 1.154V2.4a1.587 1.587 0 0 0 .12.6H10a1 1 0 0 0-1 1v1.12A1.6 1.6 0 0 0 8 6.6v1.8A1.602 1.602 0 0 0 9.6 10h1.8a1.59 1.59 0 0 0 1.1-.444 1.59 1.59 0 0 0 1.1.444h1.667z"/><path class="cls-4" d="M12 1h1v3h-1z"/><path class="cls-6" d="M10 4v4h1V5h3v3h1V4h-5z"/><path class="cls-7" d="M9.6 6h1.8a.6.6 0 0 1 .6.6v1.8a.6.6 0 0 1-.6.6H9.6a.6.6 0 0 1-.6-.6V6.6a.6.6 0 0 1 .6-.6z"/><path class="cls-8" d="M10 7h1v1h-1z"/><path class="cls-7" d="M13.6 6h1.8a.6.6 0 0 1 .6.6v1.8a.6.6 0 0 1-.6.6h-1.8a.6.6 0 0 1-.6-.6V6.6a.6.6 0 0 1 .6-.6z"/><path class="cls-8" d="M14 7h1v1h-1z"/><path class="cls-7" d="M11.6 0h1.8a.6.6 0 0 1 .6.6v1.8a.6.6 0 0 1-.6.6h-1.8a.6.6 0 0 1-.6-.6V.6a.6.6 0 0 1 .6-.6z"/><path class="cls-8" d="M12 1h1v1h-1z"/></svg>