<svg id="Icons" xmlns="http://www.w3.org/2000/svg" viewBox="0 0 16 16"><defs><style>.cls-1{fill:none}.cls-2{fill:#e5d255}.cls-3{fill:#f4eec8}.cls-4,.cls-9{fill:#6d6e71}.cls-5{fill:#f0e498}.cls-6{fill:#bddbee}.cls-7{fill:#eeaa5a}.cls-8{fill:#f8f8f8}.cls-8,.cls-9{fill-rule:evenodd}.cls-10{fill:#68aa67}.cls-11{fill:#ddeedb}</style></defs><title>sceneweblayerpolygon16</title><path class="cls-1" d="M0 0h16v16H0z"/><path class="cls-2" d="M16 14.4s-3.2-1.6-8 0-8 0-8 0L2.133 1.6A9.762 9.762 0 0 0 8 1.6a9.762 9.762 0 0 1 5.867 0z"/><path class="cls-3" d="M3 3h10l1 10H2L3 3z"/><path class="cls-4" d="M3.117 12l.778-8h8.21l.778 8H3.117z"/><path class="cls-5" d="M11.21 5h-1.015L9.1 8l1.394 3h1.272l-.556-6z"/><path class="cls-6" d="M7.503 7L8.4 5H4.79l-.186 2h2.9z"/><path class="cls-7" d="M4.512 8l-.278 3h4.664L7.503 8h-2.99z"/><path class="cls-1" d="M0 0h16v16H0z"/><path class="cls-8" d="M13.867 1.6A11 11 0 0 0 10 1.154V2.4a1.587 1.587 0 0 0 .12.6H10a1 1 0 0 0-1 1v1.12A1.6 1.6 0 0 0 8 6.6v1.8A1.602 1.602 0 0 0 9.6 10h1.8a1.59 1.59 0 0 0 1.1-.444 1.59 1.59 0 0 0 1.1.444h1.667z"/><path class="cls-4" d="M12 1h1v3h-1z"/><path class="cls-9" d="M10 4v4h1V5h3v3h1V4h-5z"/><path class="cls-10" d="M9.6 6h1.8a.6.6 0 0 1 .6.6v1.8a.6.6 0 0 1-.6.6H9.6a.6.6 0 0 1-.6-.6V6.6a.6.6 0 0 1 .6-.6z"/><path class="cls-11" d="M10 7h1v1h-1z"/><path class="cls-10" d="M13.6 6h1.8a.6.6 0 0 1 .6.6v1.8a.6.6 0 0 1-.6.6h-1.8a.6.6 0 0 1-.6-.6V6.6a.6.6 0 0 1 .6-.6z"/><path class="cls-11" d="M14 7h1v1h-1z"/><path class="cls-10" d="M11.6 0h1.8a.6.6 0 0 1 .6.6v1.8a.6.6 0 0 1-.6.6h-1.8a.6.6 0 0 1-.6-.6V.6a.6.6 0 0 1 .6-.6z"/><path class="cls-11" d="M12 1h1v1h-1z"/></svg>