<svg id="Icons" xmlns="http://www.w3.org/2000/svg" viewBox="0 0 16 16"><defs><style>.cls-1{fill:none}.cls-2{fill:#e5d255}.cls-3{fill:#6d6e71}.cls-4{fill:#e0e0e0}.cls-5{fill:#f8f8f8}</style></defs><title>layer3d16</title><path class="cls-1" d="M0 0h16v16H0z"/><path class="cls-2" d="M16 14.4s-3.2-1.6-8 0-8 0-8 0L2.133 1.6A9.762 9.762 0 0 0 8 1.6a9.762 9.762 0 0 1 5.867 0z"/><path class="cls-3" d="M4 7h4v9H4zM7 5H5L4 7h4L7 5z"/><path class="cls-4" d="M5 7l.5-1h1L7 7H5zM5 8h2v7H5z"/><path class="cls-5" d="M5 8h1v7H5z"/><path class="cls-3" d="M9 10h4v6H9z"/><path class="cls-4" d="M10 11h2v4h-2z"/><path class="cls-5" d="M10 11h1v4h-1z"/><path class="cls-3" d="M12 8h-2l-1 2h4l-1-2z"/><path class="cls-4" d="M10 10l.5-1h1l.5 1h-2z"/></svg>