<svg id="Icons" xmlns="http://www.w3.org/2000/svg" viewBox="0 0 16 16"><defs><style>.cls-1{fill:none}.cls-2{fill:#e5d255}.cls-3{fill:#f4eec8}.cls-4{fill:#58595b}.cls-5{fill:#f8f8f8}.cls-6{fill:#57a6d9}.cls-7{fill:#d3eaf9}</style></defs><title>sceneweblayerpointcloud16</title><path class="cls-1" d="M0 0h16v16H0z"/><path class="cls-2" d="M16 14.4s-3.2-1.6-8 0-8 0-8 0L2.133 1.6A9.762 9.762 0 0 0 8 1.6a9.762 9.762 0 0 1 5.867 0z"/><circle class="cls-3" cx="8" cy="5" r="1.9" transform="rotate(-67.382 8 5)"/><path class="cls-4" d="M9.05 5A1.05 1.05 0 1 1 8 3.95 1.05 1.05 0 0 1 9.05 5z"/><circle class="cls-3" cx="5" cy="11" r="1.9" transform="rotate(-67.38 5 11)"/><path class="cls-4" d="M6.05 11A1.05 1.05 0 1 1 5 9.95 1.05 1.05 0 0 1 6.05 11z"/><circle class="cls-3" cx="9" cy="8" r="1.9" transform="rotate(-67.382 9 8)"/><path class="cls-4" d="M10.05 8A1.05 1.05 0 1 1 9 6.95 1.05 1.05 0 0 1 10.05 8z"/><circle class="cls-3" cx="12" cy="11" r="1.9" transform="rotate(-67.383 12 11)"/><path class="cls-4" d="M13.05 11A1.05 1.05 0 1 1 12 9.95 1.05 1.05 0 0 1 13.05 11z"/><path class="cls-5" d="M10.097 2.845a2.514 2.514 0 0 0-.76-1.607A6.404 6.404 0 0 0 8 1.6a9.762 9.762 0 0 1-5.867 0l-.886 5.315a3.01 3.01 0 0 0 .68.085h6.667A2.38 2.38 0 0 0 11 4.665a2.304 2.304 0 0 0-.903-1.82z"/><path class="cls-6" d="M9.053 3.406a1.506 1.506 0 0 0 .05-.377A1.613 1.613 0 0 0 7.447 1.46c-.026 0-.05.003-.077.004A1.98 1.98 0 0 0 5.423 0 2.032 2.032 0 0 0 3.79.8a1.724 1.724 0 0 0-.624-.116A1.602 1.602 0 0 0 1.522 2.24c0 .053.003.104.007.155A1.85 1.85 0 0 0 0 4.178 1.877 1.877 0 0 0 1.927 6H8.59A1.375 1.375 0 0 0 10 4.665a1.34 1.34 0 0 0-.947-1.26z"/><path class="cls-7" d="M1.927 5A.88.88 0 0 1 1 4.178a.853.853 0 0 1 .723-.8L2.61 3.2l-.086-.9a.61.61 0 0 1 .642-.617.734.734 0 0 1 .264.048l.707.273.453-.606a1.04 1.04 0 0 1 .833-.4.986.986 0 0 1 .975.703l.195.793.823-.03a.625.625 0 0 1 .688.563.523.523 0 0 1-.02.126l-.233.907.89.293a.35.35 0 0 1 .26.31.386.386 0 0 1-.412.334z"/></svg>