<svg id="Icons" xmlns="http://www.w3.org/2000/svg" viewBox="0 0 16 16"><defs><style>.cls-1{fill:none}.cls-2{fill:#e5d255}.cls-3{fill:#e0e0e0}.cls-4{fill:#6d6e71}.cls-5{fill:#808284}.cls-6{fill:#f8f8f8}.cls-7{fill:#a7a9ac}</style></defs><title>sceneweblayersmesh16</title><path class="cls-1" d="M0 0h16v16H0z"/><path class="cls-2" d="M16 14.4s-3.2-1.6-8 0-8 0-8 0L2.133 1.6A9.762 9.762 0 0 0 8 1.6a9.762 9.762 0 0 1 5.867 0z"/><path class="cls-3" d="M3 7h3v3H3z"/><path class="cls-4" d="M10 2h1v2h-1z"/><path class="cls-5" d="M4 10H3v1h1v2h1v-2h1v-1H4zM6 6H3v1h3zM2 7v3h1V7zM6 7v3h1V7z"/><path class="cls-4" d="M8 4h5v9H8z"/><path class="cls-3" d="M9 5h3v8H9z"/><path class="cls-6" d="M9 5h1v8H9zM8 1.6a9.762 9.762 0 0 1-5.867 0l-.44 2.63L4.11 7.577a1.09 1.09 0 0 0 .84.455H5a1.102 1.102 0 0 0 .832-.38l5.624-6.497A7.848 7.848 0 0 0 8 1.6z"/><path class="cls-5" d="M0 0l5 6.934L11 0H0z"/><path class="cls-7" d="M2.275 1.74l2.21 1.717.217 2.48-2.427-4.198z"/><path class="cls-6" d="M2.95 1h5.263L5.03 2.483 2.95 1z"/><path class="cls-4" d="M2 12h12v1H2z"/></svg>