<svg id="Icons" xmlns="http://www.w3.org/2000/svg" viewBox="0 0 16 16"><defs><style>.cls-1{fill:#e5d255}.cls-2{fill:none}.cls-3{fill:#f8f8f8}.cls-10,.cls-3,.cls-5,.cls-7,.cls-8{fill-rule:evenodd}.cls-4,.cls-5{fill:#d3b490}.cls-6{fill:#e9ded4}.cls-7{fill:#595959}.cls-8{fill:#fff}.cls-10,.cls-9{fill:#6d6e71}.cls-11{fill:#68aa67}.cls-12{fill:#ddeedb}</style></defs><title>scenepackage16</title><path class="cls-1" d="M16 14.4s-3.2-1.6-8 0-8 0-8 0L2.133 1.6A9.762 9.762 0 0 0 8 1.6a9.762 9.762 0 0 1 5.867 0z"/><path class="cls-2" d="M0 0h16v16H0z"/><path class="cls-3" d="M10 9a1 1 0 0 0-.168-.555l-2-3A1 1 0 0 0 7 5H2a.997.997 0 0 0-.452.11L0 14.4s3.2 1.6 8 0a14.068 14.068 0 0 1 2-.506z"/><path class="cls-4" d="M0 10h9v6H0z"/><path class="cls-5" d="M9 9H0l2-3h5l2 3z"/><path class="cls-6" d="M0 9h9v1H0z"/><path class="cls-7" d="M4.5 10.5L2 13h2v2h1v-2h2l-2.5-2.5z"/><path class="cls-6" d="M4 6h1v3H4z"/><path class="cls-8" d="M13.867 1.6A11 11 0 0 0 10 1.154V2.4a1.587 1.587 0 0 0 .12.6H10a1 1 0 0 0-1 1v1.12A1.6 1.6 0 0 0 8 6.6v1.8A1.602 1.602 0 0 0 9.6 10h1.8a1.59 1.59 0 0 0 1.1-.444 1.59 1.59 0 0 0 1.1.444h1.667z"/><path class="cls-9" d="M12 1h1v3h-1z"/><path class="cls-10" d="M10 4v4h1V5h3v3h1V4h-5z"/><path class="cls-11" d="M9.6 6h1.8a.6.6 0 0 1 .6.6v1.8a.6.6 0 0 1-.6.6H9.6a.6.6 0 0 1-.6-.6V6.6a.6.6 0 0 1 .6-.6z"/><path class="cls-12" d="M10 7h1v1h-1z"/><path class="cls-11" d="M13.6 6h1.8a.6.6 0 0 1 .6.6v1.8a.6.6 0 0 1-.6.6h-1.8a.6.6 0 0 1-.6-.6V6.6a.6.6 0 0 1 .6-.6z"/><path class="cls-12" d="M14 7h1v1h-1z"/><path class="cls-11" d="M11.6 0h1.8a.6.6 0 0 1 .6.6v1.8a.6.6 0 0 1-.6.6h-1.8a.6.6 0 0 1-.6-.6V.6a.6.6 0 0 1 .6-.6z"/><path class="cls-12" d="M12 1h1v1h-1z"/></svg>