<svg id="Icons" xmlns="http://www.w3.org/2000/svg" viewBox="0 0 16 16"><defs><style>.cls-1{fill:none}.cls-2{fill:#e5d255}.cls-3{fill:#f4eec8}.cls-3,.cls-4,.cls-5,.cls-6{fill-rule:evenodd}.cls-4,.cls-7{fill:#6d6e71}.cls-5{fill:#f8f8f8}.cls-6{fill:#a7a9ac}.cls-8{fill:#68aa67}.cls-9{fill:#ddeedb}</style></defs><title>sceneweblayersmultipatch16</title><path class="cls-1" d="M0 0h16v16H0z"/><path class="cls-2" d="M16 14.4s-3.2-1.6-8 0-8 0-8 0L2.133 1.6A9.762 9.762 0 0 0 8 1.6a9.762 9.762 0 0 1 5.867 0z"/><path class="cls-3" d="M7.975 14.076a1 1 0 0 1-.38-.077 1.255 1.255 0 0 1-.18-.095L2.5 10.765A1.168 1.168 0 0 1 2 9.85V6.17a1.164 1.164 0 0 1 .48-.902 1.006 1.006 0 0 1 .154-.084A718.72 718.72 0 0 1 7.64 3.368a1.186 1.186 0 0 1 .37-.064 1.22 1.22 0 0 1 .316.047c1.19.43 4.908 1.778 5.026 1.83a.98.98 0 0 1 .13.066A1.17 1.17 0 0 1 14 6.17v3.68a1.168 1.168 0 0 1-.5.914c-4.938 3.158-4.938 3.158-4.987 3.184a.923.923 0 0 1-.1.047 1.146 1.146 0 0 1-.23.065v.002a1.115 1.115 0 0 1-.184.014z"/><path class="cls-4" d="M12.958 6.098c-.068-.03-3.245-1.184-4.915-1.79a.103.103 0 0 0-.06 0c-1.673.604-4.86 1.757-4.94 1.792a.087.087 0 0 0-.035.07v3.68a.086.086 0 0 0 .04.072l4.91 3.143.024.01a.112.112 0 0 1 .022.003l.023-.004.02-.008c.013-.007 4.913-3.144 4.913-3.144A.087.087 0 0 0 13 9.85V6.17a.086.086 0 0 0-.042-.072z"/><path class="cls-5" d="M3.86 6.236L8.002 8.38c.066-.036 3.85-2.015 4.13-2.16-.285-.105-4.07-1.49-4.12-1.51-.05.02-3.87 1.423-4.152 1.526z"/><path class="cls-6" d="M3.395 9.684C3.465 9.73 7.64 12.4 7.7 12.44V8.92c-.076-.04-4.098-2.143-4.305-2.25z"/><path class="cls-4" d="M8.306 8.92v3.52c.217-.137 4.24-2.713 4.305-2.756V6.67L8.307 8.92z"/><path class="cls-1" d="M3 4h9.992v10H3z"/><path class="cls-5" d="M13.867 1.6A11 11 0 0 0 10 1.154V2.4a1.587 1.587 0 0 0 .12.6H10a1 1 0 0 0-1 1v1.12A1.6 1.6 0 0 0 8 6.6v1.8A1.602 1.602 0 0 0 9.6 10h1.8a1.59 1.59 0 0 0 1.1-.444 1.59 1.59 0 0 0 1.1.444h1.667z"/><path class="cls-7" d="M12 1h1v3h-1z"/><path class="cls-4" d="M10 4v4h1V5h3v3h1V4h-5z"/><path class="cls-8" d="M9.6 6h1.8a.6.6 0 0 1 .6.6v1.8a.6.6 0 0 1-.6.6H9.6a.6.6 0 0 1-.6-.6V6.6a.6.6 0 0 1 .6-.6z"/><path class="cls-9" d="M10 7h1v1h-1z"/><path class="cls-8" d="M13.6 6h1.8a.6.6 0 0 1 .6.6v1.8a.6.6 0 0 1-.6.6h-1.8a.6.6 0 0 1-.6-.6V6.6a.6.6 0 0 1 .6-.6z"/><path class="cls-9" d="M14 7h1v1h-1z"/><path class="cls-8" d="M11.6 0h1.8a.6.6 0 0 1 .6.6v1.8a.6.6 0 0 1-.6.6h-1.8a.6.6 0 0 1-.6-.6V.6a.6.6 0 0 1 .6-.6z"/><path class="cls-9" d="M12 1h1v1h-1z"/></svg>