<svg id="Icons" xmlns="http://www.w3.org/2000/svg" viewBox="0 0 16 16"><defs><style>.cls-1{fill:#e5d255}.cls-2{fill:none}.cls-3{fill:#f4eec8}.cls-4{fill:#6e6e6e}</style></defs><title>spatiotemporal16</title><path class="cls-1" d="M16 14.4s-3.2-1.6-8 0-8 0-8 0L2.133 1.6A9.762 9.762 0 0 0 8 1.6a9.762 9.762 0 0 1 5.867 0z"/><path class="cls-2" d="M0 0h16v16H0z"/><path class="cls-3" d="M8 12.5A4.5 4.5 0 1 1 12.5 8 4.505 4.505 0 0 1 8 12.5zm0-7.65A3.15 3.15 0 1 0 11.15 8 3.154 3.154 0 0 0 8 4.85z"/><path class="cls-4" d="M12.9 8A4.9 4.9 0 1 1 8 3.1 4.9 4.9 0 0 1 12.9 8zm-.75 0A4.15 4.15 0 1 0 8 12.15 4.155 4.155 0 0 0 12.15 8z"/><path class="cls-3" d="M10.2 7.5a2.302 2.302 0 0 0 2.3 2.3c.017 0 .033-.005.05-.005a4.847 4.847 0 0 0-.5-4.55A2.302 2.302 0 0 0 10.2 7.5zM3.363 6.487A2.273 2.273 0 0 0 4.5 6.8a2.302 2.302 0 0 0 2.3-2.3 2.273 2.273 0 0 0-.313-1.137 4.877 4.877 0 0 0-3.124 3.124zM8 12.9a4.87 4.87 0 0 0 1.795-.35c0-.017.005-.033.005-.05a2.3 2.3 0 0 0-4.554-.45A4.875 4.875 0 0 0 8 12.9z"/><circle class="cls-4" cx="4.5" cy="4.5" r="1.3"/><circle class="cls-4" cx="7.5" cy="12.5" r="1.3"/><circle class="cls-4" cx="12.5" cy="7.5" r="1.3"/></svg>