<svg id="Icons" xmlns="http://www.w3.org/2000/svg" viewBox="0 0 16 16"><defs><style>.cls-1{fill:none}.cls-2{fill:#e5d255}.cls-3{fill:#6e6e6e}.cls-4{fill:#f8f8f8}.cls-5{fill:#6db5e3}.cls-6{fill:#828282}.cls-7{fill:#f4eec8}.cls-8{fill:#4c4c4c}</style></defs><title>spatiotemporaltable16</title><path class="cls-1" d="M0 0h16v16H0z"/><path class="cls-1" d="M0 0h16v16H0z"/><path class="cls-2" d="M16 14.4s-3.2-1.6-8 0-8 0-8 0L2.133 1.6A9.762 9.762 0 0 0 8 1.6a9.762 9.762 0 0 1 5.867 0z"/><path class="cls-3" d="M3 4h10v9H3z"/><path class="cls-4" d="M4 5h8v7H4z"/><path class="cls-5" d="M4 5h8v1H4z"/><path class="cls-6" d="M4 8h8v1H4zM4 10h8v1H4zM4 6h8v1H4z"/><path class="cls-6" d="M6 6.998h1V12H6zM9 6.998h1V12H9z"/><path class="cls-7" d="M12 9a4.955 4.955 0 0 0 2.938-.974L13.868 1.6A9.762 9.762 0 0 0 8 1.6a5.877 5.877 0 0 1-.442.153A4.937 4.937 0 0 0 7 4a5.006 5.006 0 0 0 5 5z"/><circle class="cls-8" cx="9.5" cy="1.5" r=".5"/><circle class="cls-8" cx="11.5" cy="7.5" r=".5"/><path class="cls-3" d="M15.5 5.2a1.684 1.684 0 0 1-.7-.154A3 3 0 0 1 13.047 6.8a1.684 1.684 0 0 1 .154.7c0 .03-.008.06-.01.09a3.783 3.783 0 0 0 2.4-2.4c-.03.003-.06.01-.09.01zM11.158 1.135a2.905 2.905 0 0 1 3.24 1.08 1.687 1.687 0 0 1 .727-.37 3.72 3.72 0 0 0-4.33-1.432 1.687 1.687 0 0 1 .363.722zM10.216 6.398A2.988 2.988 0 0 1 9 4a2.958 2.958 0 0 1 .135-.84 1.686 1.686 0 0 1-.722-.363A3.76 3.76 0 0 0 8.2 4a3.793 3.793 0 0 0 1.644 3.125 1.688 1.688 0 0 1 .372-.727z"/><circle class="cls-8" cx="15.5" cy="3.5" r=".5"/></svg>