<svg xmlns="http://www.w3.org/2000/svg" viewBox="0 0 16 16"><defs><style>.cls-1{fill:none}.cls-2{fill:#6e6e6e}.cls-3{fill:#f8f8f8}.cls-4{fill:#6db5e3}.cls-5{fill:#828282}</style></defs><title>statisticaldatacollection16</title><g id="Icons"><path class="cls-1" d="M0 0h16v16H0z"/><path class="cls-2" d="M0 1h15v13H0z"/><path class="cls-3" d="M1 2h13v11H1z"/><path class="cls-4" d="M1 2h13v2H1z"/><path class="cls-5" d="M14 5V4H1v1h2v2H1v1h2v2H1v1h2v2h1v-2h3v2h1v-2h3v2h1v-2h2v-1h-2V8h2V7h-2V5zM4 5h3v2H4zm0 5V8h3v2zm7 0H8V8h3zm0-3H8V5h3z"/></g></svg>