<svg xmlns="http://www.w3.org/2000/svg" viewBox="0 0 16 16"><defs><style>.cls-1{fill:#57a6d9}.cls-2{fill:#d3eaf9}.cls-3{fill:none}.cls-4{fill:#f8f8f8}.cls-5{fill:#6e6e6e}.cls-6{fill:#efefef}.cls-7{fill:#9bc29c}.cls-8{fill:#a67a47}.cls-9{fill:#c96b4b}</style></defs><title>webstyle16</title><g id="Icons"><path class="cls-1" d="M14.484 5.677a2.567 2.567 0 0 0 .08-.628 2.632 2.632 0 0 0-2.65-2.613c-.04 0-.08.004-.12.006a3.214 3.214 0 0 0-5.73-1.107 2.664 2.664 0 0 0-1-.194 2.61 2.61 0 0 0-2.63 2.592c0 .086.005.173.013.258A3.033 3.033 0 0 0 3.08 10h10.666a2.22 2.22 0 0 0 .738-4.323z"/><path class="cls-2" d="M3.08 9a2.033 2.033 0 0 1-.43-4.03l.874-.18-.08-.89a1.863 1.863 0 0 1-.01-.166 1.614 1.614 0 0 1 1.63-1.592 1.665 1.665 0 0 1 .626.12l.73.295.457-.638a2.22 2.22 0 0 1 1.8-.92 2.178 2.178 0 0 1 2.142 1.672l.19.81.842-.04a1.643 1.643 0 0 1 1.713 1.607 1.567 1.567 0 0 1-.05.384l-.224.89.87.3a1.228 1.228 0 0 1 .84 1.15A1.244 1.244 0 0 1 13.744 9z"/><path class="cls-3" d="M16 16H0V0h16z"/><path class="cls-4" d="M12.78 7.788a2.8 2.8 0 0 0-.767-1.656 3.285 3.285 0 0 0-2.455-.9l-.203.006c-3.77.15-6.7 2.065-7.253 4.59a3.09 3.09 0 0 0 .98.172h10.664a2.256 2.256 0 0 0 2.043-1.298 6.635 6.635 0 0 0-3.01-.914z"/><path class="cls-5" d="M9.212 14.9a7.472 7.472 0 0 1-5.074-1.745A3.377 3.377 0 0 1 3 10.682c.01-2.39 2.758-4.3 6.394-4.445l.184-.004a2.313 2.313 0 0 1 1.72.6 2.25 2.25 0 0 1 .49 1.847l.34.04c1.5.17 3.05.345 3.61 1.366a2.068 2.068 0 0 1-.09 2.16c-1.032 1.66-3.98 2.605-6.227 2.652z"/><path class="cls-6" d="M9.207 13.9a6.465 6.465 0 0 1-4.38-1.47A2.37 2.37 0 0 1 4 10.687c.007-1.813 2.394-3.33 5.435-3.45l.165-.003a1.362 1.362 0 0 1 .986.3c.222.226.243.565.206 1.073a1 1 0 0 0 .884 1.067l.34.04c1.128.126 2.534.287 2.844.853a1.08 1.08 0 0 1-.06 1.152c-.806 1.293-3.43 2.14-5.4 2.18z"/><path class="cls-4" d="M15.172 9.484A2.198 2.198 0 0 0 16 7.774a2.175 2.175 0 0 0-.022-.266 1.356 1.356 0 0 0-.317-.04 1.37 1.37 0 0 0-.797.257l-1.948 1.15a1.06 1.06 0 0 0-.2.158l-3.66 3.15a.97.97 0 0 0-.18.23 1.84 1.84 0 0 0-1.755 1.81.706.706 0 0 1-.257.368 9.053 9.053 0 0 0 2.35.31l.208-.002a10.255 10.255 0 0 0 1.664-.184V14.7c.093-.018.182-.023.274-.042l3.62-3.12a1.058 1.058 0 0 0 .08-.08l.854-.925a2.146 2.146 0 0 0-.175-.447 1.735 1.735 0 0 0-.565-.602z"/><path class="cls-5" d="M15.928 8.59a.358.358 0 0 0-.505-.034l-2 1.18.003.003-3.72 3.2.89 1.053 3.727-3.212 1.554-1.685a.36.36 0 0 0 .05-.505z"/><path class="cls-7" d="M7 9h1v1H7z"/><path class="cls-1" d="M5 10h1v1H5z"/><path class="cls-8" d="M10.102 14.464l-.914-1.073s-1.048-.06-1.068.855C8.1 15.15 7 15.718 7 15.718a2.14 2.14 0 0 0 1 .28 2.313 2.313 0 0 0 1.035-.206c1.134-.503 1.067-1.328 1.067-1.328z"/><path class="cls-9" d="M7 11h1v1H7z"/><path class="cls-3" d="M16 16H0V0h16z"/><path class="cls-3" d="M0 0h16v16H0z"/></g></svg>