<svg id="Icons" xmlns="http://www.w3.org/2000/svg" viewBox="0 0 16 16"><defs><style>.cls-1{fill:none}.cls-2{fill:#e5d255}.cls-3{fill:#6e6e6e}.cls-4{fill:#f8f8f8}.cls-5{fill:#6db5e3}.cls-6{fill:#828282}</style></defs><title>tablelayer16</title><path class="cls-1" d="M0 0h16v16H0z"/><path class="cls-2" d="M16 14.4s-3.2-1.6-8 0-8 0-8 0L2.133 1.6A9.762 9.762 0 0 0 8 1.6a9.762 9.762 0 0 1 5.867 0z"/><path class="cls-3" d="M3 4h10v9H3z"/><path class="cls-4" d="M4 5h8v7H4z"/><path class="cls-5" d="M4 5h8v1H4z"/><path class="cls-6" d="M4 8h8v1H4zM4 10h8v1H4zM4 6h8v1H4z"/><path class="cls-6" d="M6 6.998h1V12H6zM9 6.998h1V12H9z"/></svg>