<svg xmlns="http://www.w3.org/2000/svg" viewBox="0 0 16 16"><defs><style>.cls-1{fill:none}.cls-2{fill:#6e6e6e}.cls-3{fill:#f8f8f8}.cls-4{fill:#7c6da8}.cls-5{fill:#68aa67}</style></defs><title>taskfile16</title><g id="Icons"><path class="cls-1" d="M0 0h16v16H0z"/><path class="cls-2" d="M15 16H2V0h9.4L15 3.6V16z"/><path class="cls-3" d="M11.31 1H3v14h11V3.69L11.31 1z"/><path class="cls-2" d="M11 4V1h-1v4h5V4h-4z"/><path class="cls-4" d="M9 6V4H0v9h11V6H9z"/><path class="cls-3" d="M1 5h9v7H1z"/><path class="cls-4" d="M7 8h2v1H7zM6 10h3v1H6zM2 6h7v1H2z"/><path class="cls-5" d="M3.5 10.995l2.5-2.5V8h-.602l-1.9 1.9L2.6 9H2v.495l1.5 1.5z"/></g></svg>