<svg xmlns="http://www.w3.org/2000/svg" viewBox="0 0 16 16"><defs><style>.cls-1{fill:#6e6e6e}.cls-2{fill:#9bc29c}.cls-3{fill:#d3eaf9}.cls-4{fill:#f8f8f8}.cls-4,.cls-7,.cls-8,.cls-9{fill-rule:evenodd}.cls-5{fill:none}.cls-6,.cls-7{fill:#d3b490}.cls-8{fill:#595959}.cls-9{fill:#e9ded4}</style></defs><title>mappackagedtiledtpkfile16</title><g id="Icons"><path class="cls-1" d="M3 0h4v4H3z"/><path class="cls-2" d="M4 1h2v2H4z"/><path class="cls-1" d="M9 2h4v4H9z"/><path class="cls-2" d="M10 3h2v2h-2z"/><path class="cls-1" d="M12 2h4v4h-4z"/><path class="cls-3" d="M13 3h2v2h-2z"/><path class="cls-1" d="M6 5h4v4H6z"/><path class="cls-2" d="M7 6h2v2H7z"/><path class="cls-1" d="M9 5h4v4H9z"/><path class="cls-3" d="M10 6h2v2h-2z"/><path class="cls-1" d="M12 5h4v4h-4z"/><path class="cls-3" d="M13 6h2v2h-2z"/><path class="cls-1" d="M6 8h4v4H6z"/><path class="cls-2" d="M7 9h2v2H7z"/><path class="cls-1" d="M9 8h4v4H9z"/><path class="cls-3" d="M10 9h2v2h-2z"/><path class="cls-1" d="M12 8h4v4h-4z"/><path class="cls-2" d="M13 9h2v2h-2zM12 11V9.268c-.213.103-.42.21-.42.45 0 .165.06.262.066.42v.022a3.596 3.596 0 0 1-.146.84zM10 7.695a1.01 1.01 0 0 0 .324-.677.403.403 0 0 1 .375-.418c.296 0 .407.308.704.308.332 0 .432-.295.596-.56V6h-2z"/><path class="cls-4" d="M10 12V9a1 1 0 0 0-.168-.555l-2-3A1.003 1.003 0 0 0 7 5H6v7z"/><path class="cls-5" d="M0 0h16v16H0z"/><path class="cls-6" d="M0 10h9v6H0z"/><path class="cls-7" d="M9 9H0l2-3h5l2 3z"/><path class="cls-8" d="M4.5 10.5L2 13h2v2h1v-2h2l-2.5-2.5z"/><path class="cls-9" d="M5 9V6H4v3H0v1h9V9H5z"/></g></svg>