<svg id="Icons" xmlns="http://www.w3.org/2000/svg" viewBox="0 0 16 16"><defs><style>.cls-1{fill:#6d6e71}.cls-2{fill:none}.cls-3{fill:#a7a9ac}.cls-4{fill:#f8f8f8}.cls-5{fill:#d3b490}</style></defs><title>tools_16</title><path class="cls-1" d="M7.032 3.978s-.67-.65-.696-1.035a5.95 5.95 0 0 0-.185-.94 4.312 4.312 0 0 1 1.86-.993 12.955 12.955 0 0 1 2.167-.282l-.15-.166a10.818 10.818 0 0 0-3.81-.207 6.004 6.004 0 0 0-2.933 1.286c-.212.188-.633.723-.604.985a.853.853 0 0 1-.212.7 8.508 8.508 0 0 1-.69.532 1.56 1.56 0 0 0-.833-.1 5.89 5.89 0 0 0-.874.645 1.4 1.4 0 0 0-.053.55 4.9 4.9 0 0 0 .388.704 3.603 3.603 0 0 0 .764.805.75.75 0 0 0 .453.06 1.835 1.835 0 0 0 .513-.278 10.303 10.303 0 0 0 .754-.974 1.588 1.588 0 0 1 1.03-.772 7.25 7.25 0 0 1 1.74.598s-.115-.09.595-.64a2.343 2.343 0 0 1 .777-.475z"/><path class="cls-2" d="M0 0h16v16H0z"/><path class="cls-3" d="M2.27 12.578l7.773-6.668a2.8 2.8 0 0 0 .468-.69 3.212 3.212 0 0 0 .008-.843s.265.244.62.58A.862.862 0 0 1 12.31 6.12c.405.43.676.774.514.78-.437.02-.625-.066-.862-.053a1.168 1.168 0 0 0-.55.305l-6.734 7.83A1.703 1.703 0 0 1 2.27 12.58z"/><path class="cls-4" d="M3.112 13.188a.676.676 0 1 0 .956 0 .677.677 0 0 0-.956 0z"/><path class="cls-1" d="M10.97 5.907a2.65 2.65 0 0 0 3.677.674A3.948 3.948 0 0 0 16 4.066a.09.09 0 0 0-.02-.072.077.077 0 0 0-.03-.025.102.102 0 0 0-.115.01l-2.106 1.61a.224.224 0 0 1-.273.007l-.987-.724a.21.21 0 0 1-.045-.04.257.257 0 0 1-.03-.05l-.47-1.186a.228.228 0 0 1 .077-.265l2.105-1.61a.102.102 0 0 0 .038-.11.077.077 0 0 0-.015-.036.1.1 0 0 0-.066-.037 3.944 3.944 0 0 0-2.783.647 2.65 2.65 0 0 0-.31 3.723z"/><path class="cls-4" d="M8.723 10.283l2.635-3.063c-.465-.47-.92-.923-1.314-1.31L7.157 8.385c.703.83 1.24 1.482 1.565 1.898z"/><path class="cls-5" d="M15.906 13.61c-.152-.206-2.146-2.463-3.06-3.428-.942-.995-2.525-2.6-3.552-3.608A29.076 29.076 0 0 1 7.832 4.98a3.043 3.043 0 0 0-.742.47c-.468.36-.584.527-.608.6 1.202 1.397 2.99 3.503 3.383 4.095.6.908 2.783 3.54 3.076 3.93.35.46.703.974 1.1 1.107.333.11.612.04 1.163-.446.938-.828.854-.918.703-1.125z"/></svg>