<svg id="Icons" xmlns="http://www.w3.org/2000/svg" viewBox="0 0 16 16"><defs><style>.cls-1{fill:#6e6e6e}.cls-2{fill:none}.cls-3{fill:#d3b490}</style></defs><title>webtools16</title><path class="cls-1" d="M7.032 3.98s-.67-.65-.696-1.036a5.95 5.95 0 0 0-.185-.94 4.312 4.312 0 0 1 1.86-.994 12.955 12.955 0 0 1 2.167-.28l-.15-.167a10.818 10.818 0 0 0-3.81-.207A6.004 6.004 0 0 0 3.283 1.64c-.212.19-.633.724-.604.985a.853.853 0 0 1-.212.7 8.53 8.53 0 0 1-.69.533 1.56 1.56 0 0 0-.833-.1 5.893 5.893 0 0 0-.874.645 1.4 1.4 0 0 0-.053.55 4.904 4.904 0 0 0 .388.704 3.603 3.603 0 0 0 .764.804.75.75 0 0 0 .453.062 1.834 1.834 0 0 0 .513-.28 10.303 10.303 0 0 0 .754-.974 1.588 1.588 0 0 1 1.03-.77 7.25 7.25 0 0 1 1.74.596s-.115-.09.595-.64a2.343 2.343 0 0 1 .777-.475z"/><path class="cls-2" d="M0 0h16v16H0z"/><path class="cls-3" d="M15.906 13.61c-.152-.206-2.146-2.463-3.06-3.428-.942-.995-2.525-2.6-3.552-3.607A29.072 29.072 0 0 1 7.832 4.98a3.043 3.043 0 0 0-.742.47c-.468.36-.584.527-.608.6 1.202 1.398 2.99 3.503 3.383 4.095.6.908 2.783 3.54 3.076 3.93.35.46.703.974 1.1 1.107.333.11.612.04 1.163-.446.938-.828.854-.918.703-1.125z"/></svg>