<svg id="Icons" xmlns="http://www.w3.org/2000/svg" viewBox="0 0 16 16"><defs><style>.cls-1{fill:none}.cls-2{fill:#e5d255}.cls-3{fill:#6d6e71}.cls-4{fill:#ddeedb}.cls-5{fill:#f4eec8}.cls-6{fill:#f8f8f8}</style></defs><title>PlatformVectorTile16</title><path class="cls-1" d="M0 0h16v16H0z"/><path class="cls-2" d="M16 14.4s-3.2-1.6-8 0-8 0-8 0L2.133 1.6A9.762 9.762 0 0 0 8 1.6a9.762 9.762 0 0 1 5.867 0z"/><path class="cls-3" d="M8 3h5v5H8z"/><path class="cls-4" d="M9 4h3v3H9z"/><path class="cls-3" d="M4 7h5v5H4z"/><path class="cls-4" d="M5 8h3v3H5z"/><path class="cls-3" d="M8 7h5v5H8z"/><path class="cls-4" d="M9 8h3v3H9z"/><path class="cls-5" d="M4 3h4v4H4z"/><path class="cls-3" d="M2 1h5v5H2z"/><path class="cls-4" d="M3 2h3v3H3z"/><path class="cls-6" d="M5 4h1v1H5zM9 6h1v1H9zM9 8h1v1H9zM7 8h1v1H7z"/><path class="cls-3" d="M8 5h3v1H8zM5 3h2v1H5zM7 9h4v1H7z"/><path class="cls-3" d="M10 6h1v4h-1zM6 7h1v3H6zM4 3h1v3H4z"/><path class="cls-3" d="M4 3h1v3H4z"/></svg>