<svg xmlns="http://www.w3.org/2000/svg" viewBox="0 0 16 16"><defs><style>.cls-1{fill:#6e6e6e}.cls-2{fill:#d3eaf9}.cls-3{fill:none}.cls-4{fill:#e0e0e0}</style></defs><title>websceneglobal16</title><g id="Icons"><circle class="cls-1" cx="8" cy="8" r="8"/><circle class="cls-2" cx="8" cy="8" r="7"/><path class="cls-3" d="M0 0h16v16H0z"/><path class="cls-1" d="M10.032 14.78a.303.303 0 0 1-.124-.036.298.298 0 0 1-.11-.158 1.993 1.993 0 0 1-.02-.172.786.786 0 0 1 .01-.236 1.19 1.19 0 0 1 .373-.643.59.59 0 0 0 .15-.535.244.244 0 0 0-.097-.168.518.518 0 0 1-.163-.527 1.09 1.09 0 0 1 .044-.13.277.277 0 0 0 .008-.208c-.005-.02-.022-.037-.096-.055a.927.927 0 0 0-.133-.03 2.823 2.823 0 0 1-.357-.09.866.866 0 0 0-.246-.028 2.885 2.885 0 0 0-.38.03l-.382.054a2.396 2.396 0 0 1-.287.027 1.192 1.192 0 0 1-.752-.32 1.345 1.345 0 0 1-.41-.664.524.524 0 0 0-.148-.2l-.122-.116a.73.73 0 0 1-.142-.16.914.914 0 0 1-.132-.39.826.826 0 0 1 .01-.225.493.493 0 0 1 .157-.265.516.516 0 0 0 .126-.342 1.144 1.144 0 0 1 .027-.28 1.585 1.585 0 0 1 .138-.352 1.777 1.777 0 0 1 .82-.818l.123-.045.082-.1a1.09 1.09 0 0 1 .47-.546.663.663 0 0 0 .106-.083l.054-.063a1.214 1.214 0 0 1 .103-.11.51.51 0 0 1-.146-.376 3.15 3.15 0 0 1 .026-.455 1.013 1.013 0 0 1 .063-.238.503.503 0 0 1 .465-.3 1.134 1.134 0 0 1 .12.016 1.278 1.278 0 0 0 .207.046h.005c-.008-.027-.017-.05-.022-.064a.545.545 0 0 1 .03-.524c-.02-.01-.04-.027-.062-.04a.515.515 0 0 1-.196-.38.497.497 0 0 1-.268-.62l.048-.106a.493.493 0 0 1 .35-.27c.02-.002.037-.002.054-.002a.494.494 0 0 1 .358.114.744.744 0 0 1 .22.334.52.52 0 0 1 .02.084.523.523 0 0 1 .197.285l.09-.084a1.163 1.163 0 0 1 .154-.127l.006-.004a3.743 3.743 0 0 1-.333-.29.553.553 0 0 1-.122-.595.792.792 0 0 1 .078-.125.874.874 0 0 0 .066-.11l.127-.28a1.18 1.18 0 0 1 .092-.157 1.024 1.024 0 0 1 .675-.386.795.795 0 0 1 .226.036l.37.11a.233.233 0 0 1 .078-.153.24.24 0 0 1 .29-.02 7.075 7.075 0 0 1 3.076 5.202.2.2 0 0 1-.017.1c.032.028.003.07.01.116l.025.154c.01.134.015.218.015.302a7.117 7.117 0 0 1-.148 1.448.54.54 0 0 1-.383.295.572.572 0 0 1 .072.018.329.329 0 0 1 .13.102.3.3 0 0 1 .028.18 7.105 7.105 0 0 1-4.698 4.74zm.466-8.11a1.893 1.893 0 0 1 .425.043.526.526 0 0 1 .415.55 1.24 1.24 0 0 0 .62.37.49.49 0 0 1 .46-.338.497.497 0 0 1 .122.02h.014a.564.564 0 0 1 .19.07.555.555 0 0 0 .107.043l.055.002a.318.318 0 0 0 .135-.026c.092-.037.164-.064.27-.097a1.154 1.154 0 0 0-.077-.252.65.65 0 0 0-.184-.03h-.005a.582.582 0 0 1-.484-.197.5.5 0 0 1-.256.086.467.467 0 0 1-.435-.215.754.754 0 0 1-.12-.31s-.016-.023-.056-.072a2.3 2.3 0 0 0-.188-.19l-.044-.038a.503.503 0 0 1-.15.103.427.427 0 0 1-.217.05.505.505 0 0 1-.302-.096 1.696 1.696 0 0 0-.156-.116.395.395 0 0 0-.066-.005.272.272 0 0 0-.16.053l-.178-.088.1.186a.744.744 0 0 1-.278.252.59.59 0 0 1-.084.125c.01.013-.01.053-.035.095a.496.496 0 0 1-.043.07.952.952 0 0 1 .11-.02 4.29 4.29 0 0 1 .496-.028zm.672-2.564c.125 0 .15-.014.152-.016l.05-.08a.386.386 0 0 0 .026-.322 2.134 2.134 0 0 0-.1-.07l.002.034a.565.565 0 0 1-.144.454zm-7.966 9.02a.268.268 0 0 1-.16-.064A7.034 7.034 0 0 1 .9 7.986a6.955 6.955 0 0 1 .07-.933.293.293 0 0 1 .164-.196.462.462 0 0 1 .267.098.877.877 0 0 1 .15.438.617.617 0 0 0 .132.328s.124.188.15.235a1.755 1.755 0 0 1 .157.314c.067.17.147.332.23.496l.044.095a4.694 4.694 0 0 1 .28.665 1.383 1.383 0 0 1 .047.643.89.89 0 0 0-.014.154c.01.03.06.073.17.147l.434.28a3.162 3.162 0 0 1 .817.65l.062.092a.522.522 0 0 1 .034.393.54.54 0 0 1-.242.297 1.768 1.768 0 0 0-.17.103c-.053.04-.053.047-.053.094a1.63 1.63 0 0 1 0 .163.78.78 0 0 1-.066.275.737.737 0 0 1-.13.203c-.006.005-.087.07-.094.074a.307.307 0 0 1-.136.033zm-.828-8.833a.277.277 0 0 1-.15-.055.29.29 0 0 1-.056-.3A7.112 7.112 0 0 1 4.714 1.7l.133-.022a1.46 1.46 0 0 0 .16-.082l.15-.098a1.53 1.53 0 0 1 .22-.105.8.8 0 0 1 .2-.052.61.61 0 0 1 .233.05.528.528 0 0 1 .31.507 1.003 1.003 0 0 1-.177.498c-.152.226-.383.547-.526.72a.494.494 0 0 1-.38.174l-.096-.01a1.138 1.138 0 0 1-.163-.04.785.785 0 0 0-.18-.046l-.006-.006c-.01 0-.028.033-.058.115a.603.603 0 0 1-.575.444 5.776 5.776 0 0 0-.64-.027h-.014a.554.554 0 0 0-.37.228.997.997 0 0 1-.202.172c-.044.03-.1.07-.156.102a.34.34 0 0 1-.198.073zM6.91 2.898a.507.507 0 0 1-.24-.064.493.493 0 0 1-.245-.443.995.995 0 0 1 .358-.662 1.84 1.84 0 0 1 .288-.24l.11-.08a.788.788 0 0 0 .108-.092c.022-.04.084-.136.12-.187a.458.458 0 0 1 .092-.11.58.58 0 0 1 .134-.086l.184-.04C7.89.89 7.944.887 8 .887a7.103 7.103 0 0 1 1.308.125.189.189 0 0 1 .11.064.452.452 0 0 1 .123.328.475.475 0 0 1-.193.358 1.98 1.98 0 0 0-.17.138 1.184 1.184 0 0 0-.164.217l-.087.14-.1.128a.554.554 0 0 1-.332.18 1.188 1.188 0 0 1-.17.013l-.464-.023a2.212 2.212 0 0 0-.704.277.504.504 0 0 1-.246.066z"/><path class="cls-4" d="M10.36 14.365a.348.348 0 0 1-.002-.06.606.606 0 0 1 .22-.358 1.163 1.163 0 0 0 .316-.992.807.807 0 0 0-.267-.535.214.214 0 0 1 .013-.03.818.818 0 0 0 .04-.122.83.83 0 0 0-.015-.463.645.645 0 0 0-.51-.457 1.3 1.3 0 0 0-.17-.043 2.058 2.058 0 0 1-.29-.07 1.447 1.447 0 0 0-.425-.055 3.41 3.41 0 0 0-.458.035 6.89 6.89 0 0 0-.29.037l-.103.018c-.084.01-.152.02-.2.02a.664.664 0 0 1-.375-.184.78.78 0 0 1-.228-.38 1.03 1.03 0 0 0-.296-.45l-.133-.126c-.035-.035-.042-.046-.046-.05a.34.34 0 0 1-.045-.14v-.01a1.086 1.086 0 0 0 .296-.757.576.576 0 0 1 .012-.15 1.858 1.858 0 0 1 .096-.228 1.36 1.36 0 0 1 .47-.516l.146-.052a.85.85 0 0 0 .2-.11.685.685 0 0 0 .232-.34c.035-.097.072-.138.254-.265a1.13 1.13 0 0 0 .18-.15l.096-.108c.005.002.047.026.057.03l-.007-.002.07.04a1 1 0 0 0 .183.09.354.354 0 0 0 .088.018c.04.003.063.003.085.003a.653.653 0 0 0 .137-.018l.05-.017a.56.56 0 0 0 .085-.04l.04-.02a.484.484 0 0 1 .188-.077 4.28 4.28 0 0 1 .445-.024l.07.002a1.27 1.27 0 0 1 .178.015.233.233 0 0 0-.003.037.724.724 0 0 0 .005.098.545.545 0 0 0 .145.313 2.382 2.382 0 0 0 1.096.518H12a.464.464 0 0 0 .43-.21.78.78 0 0 0 .053-.118 1.67 1.67 0 0 0 .198.08.685.685 0 0 0 .21.037 1.272 1.272 0 0 0 .352-.076l.072-.026a.458.458 0 0 0-.026.19 1.918 1.918 0 0 0 .078.355 2.306 2.306 0 0 0 .296.63c.01.02.024.056.045.113l.06.203.03.098c.034.13.072.246.107.345a1.447 1.447 0 0 0 .075.167.507.507 0 0 0 .135.174.477.477 0 0 0 .252.11 3.533 3.533 0 0 1-.182.33c-.087.14-.207.313-.326.483l-.117.17a5.04 5.04 0 0 0-.393.63 3.492 3.492 0 0 0-.173.503 1.54 1.54 0 0 0-.03.11 6.885 6.885 0 0 1-2.78 1.904c-.005-.03-.008-.05-.01-.075zm-7.443-1.758A6.82 6.82 0 0 1 1.13 7.992v-.05c.02.038.175.27.198.308a1.31 1.31 0 0 1 .112.223 6.074 6.074 0 0 0 .255.556l.04.083a4.052 4.052 0 0 1 .25.592.82.82 0 0 1 .026.393 1.246 1.246 0 0 0-.02.248.596.596 0 0 0 .124.35 1.327 1.327 0 0 0 .303.257l.447.29a3.57 3.57 0 0 1 .63.468 1.696 1.696 0 0 0-.16.104.654.654 0 0 0-.29.565c.003.077.005.104.003.134a.186.186 0 0 1-.014.056l-.013.03zM14.55 8.992a3.05 3.05 0 0 0-.707-1.28.472.472 0 0 0-.078-.034.595.595 0 0 0 .123-.377 1.222 1.222 0 0 0-.12-.485.62.62 0 0 0-.544-.366 1.448 1.448 0 0 0-.175-.01h-.033a.632.632 0 0 0-.088-.135.467.467 0 0 0-.34-.184.414.414 0 0 0-.275.118.896.896 0 0 0-.164-.287 4.05 4.05 0 0 0-.254-.26 1.726 1.726 0 0 0-.257-.192.586.586 0 0 0-.16-.08.396.396 0 0 0-.108-.016.337.337 0 0 0-.204.067.342.342 0 0 0-.113.14 1.813 1.813 0 0 0-.106-.073.708.708 0 0 0-.375-.107.877.877 0 0 0-.483.158.105.105 0 0 0-.018.014v-.05a1.113 1.113 0 0 0-.077-.323 1.702 1.702 0 0 0 .483-.377 1.617 1.617 0 0 1 .194-.203l.067-.058a.965.965 0 0 0 .43.097.682.682 0 0 0 .71-.39.958.958 0 0 0 .08-.773.69.69 0 0 0-.313-.38l-.07-.045a.425.425 0 0 0-.356-.208.51.51 0 0 0-.312.122.62.62 0 0 0-.202.44c0 .022 0 .054.002.085a2.278 2.278 0 0 1-.154-.14 1.454 1.454 0 0 0 .097-.164l.143-.318a.602.602 0 0 0 .034-.053.582.582 0 0 1 .21-.142l.27.08a1.843 1.843 0 0 0 .537.11.42.42 0 0 0 .422-.298 6.93 6.93 0 0 1 2.524 4.322.577.577 0 0 0-.21.143.588.588 0 0 0-.127.482.474.474 0 0 0 .357.407l.058.018v.026a3.566 3.566 0 0 1-.142.547 2.67 2.67 0 0 1-.175.432zM9.336 6.42a.215.215 0 0 1-.037-.006s-.117-.033-.13-.04a2.904 2.904 0 0 1 .016-.325l.002-.02a1.64 1.64 0 0 0 .222.04c.007 0 .05.004.096.004.025 0 .053-.002.078-.004l-.02.032a.385.385 0 0 0-.06.095.553.553 0 0 0-.036.082.843.843 0 0 1-.034.072.196.196 0 0 1-.05.056.09.09 0 0 1-.047.012zM3.947 3.164a4.44 4.44 0 0 0-.644-.033.818.818 0 0 0-.168.018A6.76 6.76 0 0 1 4.51 2.08a.408.408 0 0 0 .345.184.632.632 0 0 0 .26-.065c.048-.024.11-.055.182-.098 0 0 .206-.135.217-.14a.632.632 0 0 1-.053.1c-.133.2-.325.467-.456.63l-.064-.016a1.226 1.226 0 0 0-.282-.067.586.586 0 0 0-.674.484.247.247 0 0 1-.037.07zm3.247-1.02a1.15 1.15 0 0 1 .214-.175l.046-.036c.04-.026.066-.047.097-.07a1.27 1.27 0 0 0 .15-.134.806.806 0 0 0 .142-.183.217.217 0 0 0 .027-.057l.024-.035a.384.384 0 0 1 .068-.04.28.28 0 0 0 .05-.028.943.943 0 0 0 .05-.04.883.883 0 0 1 .207-.025c.04 0 .085.004.138.008a2.705 2.705 0 0 1 .454.066 1.145 1.145 0 0 0-.093.085 1.697 1.697 0 0 0-.25.323l-.085.13a.965.965 0 0 1-.06.083c.01-.024-.015-.024-.047-.024L8.23 1.99l-.094-.006a1.397 1.397 0 0 0-.166-.01l-.096-.003a1.044 1.044 0 0 0-.197.016 2.32 2.32 0 0 0-.5.176.075.075 0 0 1 .017-.018z"/></g></svg>