<svg xmlns="http://www.w3.org/2000/svg" viewBox="0 0 16 16"><defs><style>.cls-1{fill:none}.cls-2{fill:#5b945a}.cls-3{fill:#9bc29c}.cls-4{fill:#6e6e6e}.cls-5{fill:#e0e0e0}.cls-6{fill:#f8f8f8}</style></defs><title>webscenelocal16</title><g id="Icons"><path class="cls-1" d="M0 0h16v16H0z"/><path class="cls-2" d="M0 16h16l-2.5-7h-11L0 16z"/><path class="cls-3" d="M1.42 15l1.785-5h9.59l1.786 5H1.42z"/><path class="cls-4" d="M3 3h5v11H3zM7 0H4L3 3h5L7 0z"/><path class="cls-5" d="M4 3l.72-2h1.56L7 3H4zM4 4h3v9H4z"/><path class="cls-6" d="M4 4h1v9H4z"/><path class="cls-4" d="M9 6h5v8H9zM13 3h-3L9 6h5l-1-3z"/><path class="cls-5" d="M10 6l.72-2h1.56L13 6h-3zM10 7h3v6h-3z"/><path class="cls-6" d="M10 7h1v6h-1z"/><path class="cls-4" d="M11 1h1v4h-1z"/></g></svg>