<svg xmlns="http://www.w3.org/2000/svg" viewBox="0 0 32 32"><defs><style>.cls-1{fill:#832fbc}</style></defs><title></title><g id="icons"><path class="cls-1" d="M29.963 7.672a1.586 1.586 0 0 0-1.584-1.585h-5.274a.187.187 0 0 1-.188-.187V3.977A2 2 0 0 0 20.825 2h-9.672A2.095 2.095 0 0 0 9.06 4.093V5.9a.187.187 0 0 1-.187.187H3.598a1.586 1.586 0 0 0-1.584 1.585v4.016a.281.281 0 0 0 .281.28H4.9l.014-.013V9.153a.177.177 0 0 1 .177-.177h21.46a.456.456 0 0 1 .449.45v13.742A1.832 1.832 0 0 1 25.168 25h-8.892a.568.568 0 0 1-.534-.373 3.98 3.98 0 0 0-7.6.373H5.657a.757.757 0 0 1-.757-.757v-3.055A.188.188 0 0 0 4.714 21H2.028l-.014.014v4.58a2.35 2.35 0 0 0 2.347 2.346h4.161a3.963 3.963 0 0 0 6.8.256.569.569 0 0 1 .475-.256h12.065a2.102 2.102 0 0 0 2.101-2.101zM21 5.625a.375.375 0 0 1-.375.375h-9.25A.375.375 0 0 1 11 5.625V4.45a.456.456 0 0 1 .45-.45h9.1a.456.456 0 0 1 .45.45zM12 28a2 2 0 1 1 2-2 2 2 0 0 1-2 2z"/><path class="cls-1" d="M13.273 17.994a.57.57 0 0 1 .479.262A3.73 3.73 0 0 0 17 20a3.74 3.74 0 0 0 3.403-2.006h3.41a.188.188 0 0 0 .187-.188v-2.589a.187.187 0 0 0-.188-.188H20.8A3.8 3.8 0 0 0 17 12a4.058 4.058 0 0 0-3.69 2.647.568.568 0 0 1-.537.383H1.093a.094.094 0 0 0-.093.093V17.9a.094.094 0 0 0 .094.094zM17 13.9a2.1 2.1 0 1 1-2.1 2.1 2.1 2.1 0 0 1 2.1-2.1z"/></g></svg>