<svg id="Icons" xmlns="http://www.w3.org/2000/svg" viewBox="0 0 16 16"><defs><style>.cls-1{fill:#6d6e71}.cls-2{fill:#d3eaf9}.cls-3{fill:#9bc29c}.cls-4{fill:#f8f8f8}.cls-5{fill:none}</style></defs><title>map16</title><path class="cls-1" d="M0 0h16v16H0z"/><path class="cls-2" d="M1 1h14v14H1z"/><path class="cls-3" d="M15 15v-4.77c-.316.086-.695.77-.8.77h-.63a1.466 1.466 0 0 1-.906-.434c-.264-.23-.258-.78-.617-.78-.483 0-.52.675-1.003.675-.22 0-.38-.175-.6-.175-.192 0-.444.102-.444.293v.502c0 .424-.506.508-.506.934 0 .17.184.236.184.41 0 .58-.893.502-.893 1.08 0 .19.215.305.215.486v.03c0 .216-.31.603-.416.98zM6.184 14.81a2.138 2.138 0 0 1 .175-.755 1.628 1.628 0 0 0 .106-.557c0-.547-1.044-.392-1.208-.72-.407-.813.693-1.022.693-1.673 0-.16-.08-.488-.333-.513-.35-.035-.443.154-.797.154a.406.406 0 0 1-.437-.36c0-.386.308-.566.308-.952 0-.25-.1-.393-.1-.642a.62.62 0 0 1 .59-.643c.322 0 .463.263.617.538a.642.642 0 0 0 .617.31c.49 0 .798-.61.798-.977a.47.47 0 0 1 .437-.49c.346 0 .475.36.823.36.57 0 .55-.755 1.053-1.03.618-.33.438-1.05.36-1.438-.033-.17.29-.5.464-.488.72.05.412-.54.412-.823a.435.435 0 0 1 .022-.14c.11-.333.595-.44.595-.837 0-.28-.234-.41-.234-.694 0-.42.62-.796 1.268-1.102A.52.52 0 0 0 12.687 1H1v14h5.196a2.66 2.66 0 0 1-.012-.19z"/><path class="cls-4" d="M1 1v14h14V1zm13 13H2V2h12z"/><path class="cls-5" d="M0 0h16v16H0z"/></svg>